<svg width="356" height="356" viewBox="0 0 356 356" fill="none" xmlns="http://www.w3.org/2000/svg">
<path d="M305.89 0H50.1103C22.4351 0 0 22.4351 0 50.1103V305.89C0 333.565 22.4351 356 50.1103 356H305.89C333.565 356 356 333.565 356 305.89V50.1103C356 22.4351 333.565 0 305.89 0Z" fill="white"/>
<path d="M245.437 121.52L184.14 85.7931C180.034 83.4023 174.966 83.4023 170.86 85.7931L140.827 103.3L113.342 119.316L109.563 121.52C105.502 123.892 103 128.243 103 132.954V223.046C103 227.757 105.502 232.108 109.563 234.48L170.86 270.207C174.966 272.598 180.034 272.598 184.14 270.207L214.205 252.687L241.754 236.633L245.437 234.486C249.498 232.121 252 227.764 252 223.053V132.96C252 128.249 249.498 123.898 245.437 121.527V121.52ZM177.32 98.4798L237.218 133.667L225.355 142.061C220.345 145.608 213.736 145.93 208.405 142.883L154.217 111.944L177.314 98.4798H177.32ZM177.327 257.52L117.769 222.763L130.729 213.451C135.836 209.781 142.63 209.492 148.032 212.712L200.513 244.011L177.327 257.527V257.52ZM237.982 222.172L230.039 226.8L116.666 160.949V133.828L124.698 129.149L237.982 194.954V222.179V222.172Z" fill="#111111"/>
</svg>
